<?xml version="1.0" encoding="utf-8"?>
<!-- Generator: Adobe Illustrator 25.0.0, SVG Export Plug-In . SVG Version: 6.00 Build 0)  -->
<svg version="1.1" id="Livello_1" xmlns="http://www.w3.org/2000/svg" xmlns:xlink="http://www.w3.org/1999/xlink" x="0px" y="0px"
	 viewBox="0 0 600 150" style="enable-background:new 0 0 600 150;" xml:space="preserve">
<g>
	<g>
		<g>
			<path d="M215.86,92.22c-2.39,1.91-5.47,3.12-9.24,3.64c-3.77,0.52-8.62,0.78-14.55,0.78c-6.04,0-11.22-0.33-15.53-0.98
				c-4.31-0.65-8.05-2-11.2-4.04l-0.4-12.36c2.69,1.93,5.39,3.37,8.08,4.33c2.69,0.96,5.52,1.6,8.49,1.91
				c2.96,0.31,6.6,0.46,10.91,0.46c4.2,0,7.18-0.17,8.95-0.52c1.27-0.23,1.91-0.94,1.91-2.14c0-1.23-0.63-1.96-1.91-2.19
				c-0.85-0.19-2.27-0.38-4.27-0.58l-12.59-1.1c-4.73-0.42-8.43-0.98-11.09-1.67c-2.66-0.69-4.71-1.86-6.15-3.49
				c-1.44-1.64-2.17-4.01-2.17-7.13c0-3.58,1.09-6.29,3.26-8.14c2.17-1.85,5.15-3.08,8.92-3.7c3.77-0.62,8.62-0.92,14.55-0.92
				c4.89,0,9.33,0.27,13.34,0.81c4,0.54,7.43,1.52,10.28,2.94l0.4,11.49c-2.5-1.35-4.94-2.36-7.3-3.03
				c-2.37-0.67-4.84-1.12-7.42-1.33c-2.58-0.21-5.79-0.32-9.64-0.32c-4.47,0-7.45,0.21-8.95,0.63c-1.04,0.27-1.56,0.87-1.56,1.79
				c0,1.04,0.52,1.65,1.56,1.85c1.54,0.31,2.96,0.5,4.27,0.58l12.59,1.04c4.85,0.38,8.66,0.94,11.43,1.67
				c2.77,0.73,4.9,1.95,6.38,3.67s2.22,4.19,2.22,7.42C219.44,87.43,218.25,90.31,215.86,92.22z"/>
			<path d="M274.74,92.3c-3.27,1.73-6.66,2.89-10.16,3.46c-3.5,0.58-7.72,0.87-12.65,0.87c-6.81,0-12.4-0.62-16.77-1.85
				c-4.37-1.23-7.71-3.39-10.02-6.47c-2.31-3.08-3.46-7.35-3.46-12.82c0-5.54,1.15-9.85,3.46-12.93c2.31-3.08,5.6-5.22,9.87-6.41
				c4.27-1.19,9.7-1.79,16.28-1.79c5.16,0,9.52,0.27,13.08,0.81c3.56,0.54,6.88,1.67,9.96,3.41l0.46,12.3
				c-3.08-2.04-6.05-3.39-8.92-4.04c-2.87-0.65-6.57-0.98-11.11-0.98c-4.2,0-7.41,0.18-9.64,0.55c-2.23,0.37-3.97,1.23-5.2,2.6
				c-1.23,1.37-1.85,3.51-1.85,6.44c0,2.93,0.63,5.06,1.91,6.41c1.27,1.35,3,2.19,5.2,2.51c2.19,0.33,5.39,0.49,9.58,0.49
				c3.27,0,5.97-0.11,8.08-0.35c2.12-0.23,4.14-0.69,6.06-1.39c1.92-0.69,4.02-1.73,6.29-3.12L274.74,92.3z"/>
			<path d="M322.89,55.29l19.11,40.42h-16.86l-4.16-9.47h-24.25l-4.1,9.47h-16.86l19.05-40.42H322.89z M316.43,75.73l-7.56-17.32
				l-7.56,17.32H316.43z"/>
			<path d="M392.91,78.5c-2.37,1.96-6,3.2-10.88,3.7l14.43,13.51H378.5l-18.65-19.23v19.23h-15.01V55.75
				c2.19-0.5,4.79-0.86,7.79-1.07c3-0.21,7.95-0.32,14.84-0.32c6.08,0,10.93,0.21,14.55,0.64c3.62,0.42,6.54,1.31,8.78,2.66
				c3.77,2.23,5.66,5.99,5.66,11.26C396.46,73.35,395.27,76.54,392.91,78.5z M379.08,65.31c-0.81-0.6-2.17-0.89-4.1-0.89h-15.13
				v8.95h15.13c1.92,0,3.29-0.32,4.1-0.95c0.81-0.63,1.21-1.8,1.21-3.49C380.29,67.11,379.89,65.91,379.08,65.31z"/>
			<path d="M449.51,77.84c-1.94,2.1-4.71,3.53-8.29,4.3c-3.58,0.77-8.18,1.15-13.8,1.15h-11.49v12.41h-15.01V55.75
				c2.19-0.5,4.79-0.86,7.79-1.07c3-0.21,7.95-0.32,14.84-0.32c6.08,0,10.93,0.21,14.55,0.64c3.62,0.42,6.54,1.31,8.78,2.66
				c1.85,1.08,3.23,2.54,4.16,4.39c0.92,1.85,1.39,4.14,1.39,6.87C452.42,72.77,451.45,75.74,449.51,77.84z M435.07,65.28
				c-0.79-0.58-2.13-0.87-4.01-0.87h-15.13v8.95h15.13c1.92,0,3.27-0.31,4.04-0.92c0.77-0.62,1.15-1.79,1.15-3.52
				C436.25,67.07,435.86,65.86,435.07,65.28z"/>
			<path d="M492.89,55.29L512,95.71h-16.86l-4.16-9.47h-24.25l-4.1,9.47h-16.86l19.05-40.42H492.89z M486.42,75.73l-7.56-17.32
				l-7.56,17.32H486.42z"/>
		</g>
		<g>
			<path d="M107.03,54.37c-20.5,0-28.97,5.83-28.97,21.13c0,15.24,8.47,21.13,28.97,21.13c20.5,0,28.97-5.89,28.97-21.13
				C136,60.14,127.53,54.37,107.03,54.37z M85.05,75.5c0-10.98,5.71-14.82,21.98-14.82c10.67,0,16.8,1.65,19.75,5.88h-3.29h-12.99
				c-1.32,0-2.58,0.52-3.52,1.46l-1.89,1.89L94.65,80.36c-0.47,0.47-1.1,0.73-1.76,0.73h-7.14C85.27,79.48,85.05,77.62,85.05,75.5z
				 M107.03,90.26c-10.61,0-16.73-1.66-19.7-5.82h3.24h12.99c1.32,0,2.58-0.52,3.51-1.45l1.9-1.89l10.45-10.45
				c0.47-0.47,1.1-0.73,1.76-0.73h7.16c0.46,1.61,0.68,3.47,0.68,5.59C129.01,86.38,123.31,90.26,107.03,90.26z"/>
		</g>
	</g>
	<g>
		<path d="M521.94,61.07c0,4.88-2.26,6.73-8.26,6.73c-5.97,0-8.26-1.85-8.26-6.73c0-4.86,2.29-6.7,8.26-6.7
			C519.68,54.37,521.94,56.21,521.94,61.07z M520.02,61.07c0-3.76-1.56-5.01-6.34-5.01c-4.75,0-6.34,1.25-6.34,5.01
			c0,3.79,1.59,5.04,6.34,5.04C518.46,66.1,520.02,64.85,520.02,61.07z M515.48,62.05l2.34,2.18h-2.44l-3.37-3.3v3.3h-2v-6.36
			c0.57-0.08,1.48-0.16,3.09-0.16c1.74,0,2.59,0.08,3.32,0.26c0.96,0.23,1.35,0.88,1.35,1.95
			C517.76,61.33,517.11,61.95,515.48,62.05z M512,60.62h2.85c0.68,0,0.83-0.18,0.83-0.7c0-0.49-0.18-0.65-0.86-0.7
			c-0.6-0.05-1.2-0.05-1.74-0.05c-0.57,0-0.88,0.03-1.09,0.03V60.62z"/>
	</g>
</g>
</svg>
